<svg xmlns="http://www.w3.org/2000/svg" xmlns:xlink="http://www.w3.org/1999/xlink" width="3000" height="324.28"><title>betmakerlogo_17</title><path d="M1016.26,1.27l-19.61,80,51.36.18a74,74,0,0,0,72.24-56.79l5.64-23.58Z" fill="#f6ae2d"/><path d="M658.4,148.36,666.29,119H482.24a96.16,96.16,0,0,0-92.35,69.34l-39.47,135.9H621.68l21.47-80H471l4.23-15.09a43.25,43.25,0,0,1,41.64-31.56h77.2A66.58,66.58,0,0,0,658.4,148.36Z" fill="#f6ae2d"/><path d="M444,.56m0,0H700.23L679.08,79.14H421.6L444,.56m0,0" fill="#f6ae2d"/><path d="M2632.29,148.36l7.89-29.31H2456.13a96.16,96.16,0,0,0-92.35,69.34l-39.47,135.9h271.26l21.47-80H2444.94l4.23-15.09a43.25,43.25,0,0,1,41.64-31.56H2568A66.58,66.58,0,0,0,2632.29,148.36Z" fill="#fff"/><path d="M2417.87.56m0,0h256.26L2653,79.14H2395.49L2417.87.56m0,0" fill="#fff"/><path d="M1584.44,324.28,1766.45.56h108.65l70.06,323.72h-102l-8.51-55.63H1714.21l-27.74,55.63Zm169.3-135.48h69L1806.46,83.29Z" fill="#fff"/><path d="M2661.61,324.28,2696.91.56h180c41.1,0,72.35,9.5,93.78,29,22,19.54,31.62,45.07,28.85,77.11-4.09,47.42-35.47,83.55-85.33,99.82l49.13,117.82H2850.67l-41.35-109.43h-38.38l-11.17,109.43Zm117.14-185.9h80.16c26.24,0,42.63-12,44.51-32.19,1.75-18.78-11.86-30.67-38.46-30.67h-79.8Z" fill="#fff"/><polygon points="1484.96 0.56 1345.65 180.45 1306.42 0.56 1187.37 0.56 1117.36 324.28 1210.68 324.28 1249.27 140.22 1281.77 324.28 1351.4 324.28 1458.1 140.94 1484.96 0.56 1484.96 0.56" fill="#fff"/><path d="M1528,.56h0l-27.1,140.38h0l-35.39,183.34h93.32l43.9-233.63A76,76,0,0,0,1528,.56Z" fill="#fff"/><polygon points="2347.44 0.56 2232.66 0.56 2103.81 121.8 2122.11 0.56 2026.69 0.56 1975.57 324.28 2073.25 324.28 2085.61 242.4 2133.09 197.63 2212.78 129.63 2347.44 0.56" fill="#fff"/><path d="M2284,324.28l-74.3-150.22-10.65,9.09a119.19,119.19,0,0,0-30.61,141.13H2284Z" fill="#fff"/><path d="M50.29,323.86l102.84-.32c81.21-.31,138.5-35.17,153.28-93,10-39-8.8-69-50.65-76.54,38.78-11.35,64.55-37.8,73-71C342,31.62,307.16-.4,238.44.31L110.54,1.62A91.93,91.93,0,0,0,22.66,69.84L0,150.17H102.4l22.37-75L195,74.56c19.42-.17,28.88,9.81,25.41,23.13-3.83,14.71-19.62,24.94-35.92,25.06l-21.88.57L143.21,196.6l32.61-.53c21.63-.14,32.42,9,28.21,25.28S184.46,247.91,163.84,248l-91.24.46" fill="#f6ae2d"/><polygon points="902.37 323.45 961.87 80.82 961.54 80.82 902.37 323.45" fill="#f6ae2d"/><polygon points="764.21 0 743.96 80.05 853.31 80.44 793.18 322.53 902.37 323.45 961.54 80.82 961.87 80.82 981.49 0.85 764.21 0" fill="#f6ae2d"/></svg>